<mxfile host="app.diagrams.net" agent="Mozilla/5.0 (Macintosh; Intel Mac OS X 10_15_7) AppleWebKit/537.36 (KHTML, like Gecko) Chrome/133.0.0.0 Safari/537.36" version="26.0.16">
  <diagram name="Page-1" id="i1HZYzRLaJeDuHU_b5Gz">
    <mxGraphModel dx="4013" dy="2067" grid="0" gridSize="10" guides="1" tooltips="1" connect="1" arrows="1" fold="1" page="0" pageScale="1" pageWidth="850" pageHeight="1100" math="0" shadow="0">
      <root>
        <mxCell id="0" />
        <mxCell id="1" parent="0" />
        <mxCell id="IAQs7s0FqmpokkQEuSBb-6" value="" style="group" vertex="1" connectable="0" parent="1">
          <mxGeometry x="350" y="664" width="452" height="952" as="geometry" />
        </mxCell>
        <mxCell id="IAQs7s0FqmpokkQEuSBb-5" value="" style="rounded=0;whiteSpace=wrap;html=1;fillColor=#eeeeee;strokeColor=#36393d;" vertex="1" parent="IAQs7s0FqmpokkQEuSBb-6">
          <mxGeometry width="452" height="952" as="geometry" />
        </mxCell>
        <mxCell id="IAQs7s0FqmpokkQEuSBb-2" value="Data Source" style="text;html=1;align=center;verticalAlign=middle;whiteSpace=wrap;rounded=0;fontSize=31;" vertex="1" parent="IAQs7s0FqmpokkQEuSBb-6">
          <mxGeometry x="2" y="3" width="448" height="76" as="geometry" />
        </mxCell>
        <mxCell id="IAQs7s0FqmpokkQEuSBb-1" value="" style="image;aspect=fixed;perimeter=ellipsePerimeter;html=1;align=center;shadow=0;dashed=0;fontColor=#4277BB;labelBackgroundColor=default;fontSize=12;spacingTop=3;image=img/lib/ibm/data/data_sources.svg;" vertex="1" parent="1">
          <mxGeometry x="474" y="1086" width="170" height="170" as="geometry" />
        </mxCell>
        <mxCell id="IAQs7s0FqmpokkQEuSBb-7" value="" style="group" vertex="1" connectable="0" parent="1">
          <mxGeometry x="1004" y="664" width="452" height="952" as="geometry" />
        </mxCell>
        <mxCell id="IAQs7s0FqmpokkQEuSBb-8" value="" style="rounded=0;whiteSpace=wrap;html=1;fillColor=#eeeeee;strokeColor=#36393d;" vertex="1" parent="IAQs7s0FqmpokkQEuSBb-7">
          <mxGeometry width="452" height="952" as="geometry" />
        </mxCell>
        <mxCell id="IAQs7s0FqmpokkQEuSBb-9" value="Data Integration" style="text;html=1;align=center;verticalAlign=middle;whiteSpace=wrap;rounded=0;fontSize=31;" vertex="1" parent="IAQs7s0FqmpokkQEuSBb-7">
          <mxGeometry x="2" y="3" width="448" height="76" as="geometry" />
        </mxCell>
        <mxCell id="IAQs7s0FqmpokkQEuSBb-3" value="" style="image;aspect=fixed;html=1;points=[];align=center;fontSize=12;image=img/lib/azure2/databases/Data_Factory.svg;" vertex="1" parent="IAQs7s0FqmpokkQEuSBb-7">
          <mxGeometry x="146" y="364" width="154" height="154" as="geometry" />
        </mxCell>
        <mxCell id="IAQs7s0FqmpokkQEuSBb-19" value="Data Factory" style="text;html=1;align=center;verticalAlign=middle;whiteSpace=wrap;rounded=0;fontSize=25;" vertex="1" parent="IAQs7s0FqmpokkQEuSBb-7">
          <mxGeometry x="140" y="527" width="166" height="30" as="geometry" />
        </mxCell>
        <mxCell id="IAQs7s0FqmpokkQEuSBb-10" value="" style="group" vertex="1" connectable="0" parent="1">
          <mxGeometry x="2313" y="664" width="452" height="952" as="geometry" />
        </mxCell>
        <mxCell id="IAQs7s0FqmpokkQEuSBb-11" value="" style="rounded=0;whiteSpace=wrap;html=1;fillColor=#eeeeee;strokeColor=#36393d;" vertex="1" parent="IAQs7s0FqmpokkQEuSBb-10">
          <mxGeometry width="452" height="952" as="geometry" />
        </mxCell>
        <mxCell id="IAQs7s0FqmpokkQEuSBb-12" value="Tranformation" style="text;html=1;align=center;verticalAlign=middle;whiteSpace=wrap;rounded=0;fontSize=31;" vertex="1" parent="IAQs7s0FqmpokkQEuSBb-10">
          <mxGeometry x="2" y="3" width="448" height="76" as="geometry" />
        </mxCell>
        <mxCell id="IAQs7s0FqmpokkQEuSBb-13" value="" style="group" vertex="1" connectable="0" parent="1">
          <mxGeometry x="3621" y="664" width="452" height="952" as="geometry" />
        </mxCell>
        <mxCell id="IAQs7s0FqmpokkQEuSBb-14" value="" style="rounded=0;whiteSpace=wrap;html=1;fillColor=#eeeeee;strokeColor=#36393d;" vertex="1" parent="IAQs7s0FqmpokkQEuSBb-13">
          <mxGeometry width="452" height="952" as="geometry" />
        </mxCell>
        <mxCell id="IAQs7s0FqmpokkQEuSBb-15" value="Analytics" style="text;html=1;align=center;verticalAlign=middle;whiteSpace=wrap;rounded=0;fontSize=31;" vertex="1" parent="IAQs7s0FqmpokkQEuSBb-13">
          <mxGeometry x="2" y="3" width="448" height="76" as="geometry" />
        </mxCell>
        <mxCell id="IAQs7s0FqmpokkQEuSBb-16" value="" style="group" vertex="1" connectable="0" parent="1">
          <mxGeometry x="4275" y="664" width="452" height="952" as="geometry" />
        </mxCell>
        <mxCell id="IAQs7s0FqmpokkQEuSBb-17" value="" style="rounded=0;whiteSpace=wrap;html=1;fillColor=#eeeeee;strokeColor=#36393d;" vertex="1" parent="IAQs7s0FqmpokkQEuSBb-16">
          <mxGeometry width="452" height="952" as="geometry" />
        </mxCell>
        <mxCell id="IAQs7s0FqmpokkQEuSBb-18" value="Dashboard" style="text;html=1;align=center;verticalAlign=middle;whiteSpace=wrap;rounded=0;fontSize=31;" vertex="1" parent="IAQs7s0FqmpokkQEuSBb-16">
          <mxGeometry x="2" y="3" width="448" height="76" as="geometry" />
        </mxCell>
        <mxCell id="IAQs7s0FqmpokkQEuSBb-21" value="" style="group" vertex="1" connectable="0" parent="1">
          <mxGeometry x="1658" y="899" width="452" height="482" as="geometry" />
        </mxCell>
        <mxCell id="IAQs7s0FqmpokkQEuSBb-22" value="" style="rounded=0;whiteSpace=wrap;html=1;fillColor=#eeeeee;strokeColor=#36393d;" vertex="1" parent="IAQs7s0FqmpokkQEuSBb-21">
          <mxGeometry width="452" height="482.00000000000006" as="geometry" />
        </mxCell>
        <mxCell id="IAQs7s0FqmpokkQEuSBb-23" value="Data Integration" style="text;html=1;align=center;verticalAlign=middle;whiteSpace=wrap;rounded=0;fontSize=31;" vertex="1" parent="IAQs7s0FqmpokkQEuSBb-21">
          <mxGeometry x="2" y="1.51890756302521" width="448" height="38.478991596638664" as="geometry" />
        </mxCell>
        <mxCell id="IAQs7s0FqmpokkQEuSBb-25" value="Data Factory" style="text;html=1;align=center;verticalAlign=middle;whiteSpace=wrap;rounded=0;fontSize=25;" vertex="1" parent="IAQs7s0FqmpokkQEuSBb-21">
          <mxGeometry x="143" y="387.00142857142856" width="166" height="15.189075630252102" as="geometry" />
        </mxCell>
        <mxCell id="IAQs7s0FqmpokkQEuSBb-27" value="" style="group" vertex="1" connectable="0" parent="1">
          <mxGeometry x="2967" y="899" width="452" height="482" as="geometry" />
        </mxCell>
        <mxCell id="IAQs7s0FqmpokkQEuSBb-28" value="" style="rounded=0;whiteSpace=wrap;html=1;fillColor=#eeeeee;strokeColor=#36393d;" vertex="1" parent="IAQs7s0FqmpokkQEuSBb-27">
          <mxGeometry width="452" height="482.00000000000006" as="geometry" />
        </mxCell>
        <mxCell id="IAQs7s0FqmpokkQEuSBb-29" value="Data Integration" style="text;html=1;align=center;verticalAlign=middle;whiteSpace=wrap;rounded=0;fontSize=31;" vertex="1" parent="IAQs7s0FqmpokkQEuSBb-27">
          <mxGeometry x="2" y="1.51890756302521" width="448" height="38.478991596638664" as="geometry" />
        </mxCell>
        <mxCell id="IAQs7s0FqmpokkQEuSBb-30" value="Data Factory" style="text;html=1;align=center;verticalAlign=middle;whiteSpace=wrap;rounded=0;fontSize=25;" vertex="1" parent="IAQs7s0FqmpokkQEuSBb-27">
          <mxGeometry x="143" y="387.00142857142856" width="166" height="15.189075630252102" as="geometry" />
        </mxCell>
      </root>
    </mxGraphModel>
  </diagram>
</mxfile>
